<svg width="1200" height="720" viewBox="0 0 1200 720" fill="none" xmlns="http://www.w3.org/2000/svg">
  <rect width="1200" height="720" fill="#eff6ff"/>
  <rect width="1200" height="720" fill="url(#sky)"/>
  <circle cx="990" cy="112" r="62" fill="#fde68a" opacity="0.9"/>
  <path d="M0 504C126 448 214 470 339 505C489 547 638 552 799 500C958 449 1062 451 1200 497V720H0V504Z" fill="#d1fae5"/>
  <path d="M0 560C139 518 262 543 392 574C573 618 740 600 896 555C1020 519 1102 525 1200 558V720H0V560Z" fill="#bfdbfe"/>
  <rect x="90" y="146" width="292" height="394" rx="22" fill="#1d4ed8"/>
  <rect x="124" y="190" width="62" height="62" rx="10" fill="#dbeafe"/>
  <rect x="210" y="190" width="62" height="62" rx="10" fill="#dbeafe"/>
  <rect x="296" y="190" width="52" height="62" rx="10" fill="#dbeafe"/>
  <rect x="124" y="282" width="62" height="62" rx="10" fill="#dbeafe"/>
  <rect x="210" y="282" width="62" height="62" rx="10" fill="#dbeafe"/>
  <rect x="296" y="282" width="52" height="62" rx="10" fill="#dbeafe"/>
  <rect x="124" y="374" width="62" height="62" rx="10" fill="#dbeafe"/>
  <rect x="210" y="374" width="62" height="62" rx="10" fill="#dbeafe"/>
  <rect x="296" y="374" width="52" height="62" rx="10" fill="#dbeafe"/>
  <rect x="206" y="472" width="60" height="68" rx="8" fill="#0f172a"/>
  <rect x="440" y="102" width="656" height="468" rx="28" fill="#ffffff"/>
  <rect x="440" y="102" width="656" height="86" rx="28" fill="#0f172a"/>
  <rect x="440" y="158" width="656" height="30" fill="#0f172a"/>
  <circle cx="492" cy="145" r="15" fill="#22d3ee"/>
  <rect x="524" y="134" width="222" height="22" rx="11" fill="#e0f2fe"/>
  <rect x="912" y="129" width="118" height="32" rx="16" fill="#2563eb"/>
  <rect x="478" y="228" width="172" height="132" rx="18" fill="#dbeafe"/>
  <rect x="684" y="228" width="172" height="132" rx="18" fill="#ccfbf1"/>
  <rect x="890" y="228" width="162" height="132" rx="18" fill="#e0e7ff"/>
  <path d="M520 312L552 280L577 305L608 262" stroke="#2563eb" stroke-width="14" stroke-linecap="round" stroke-linejoin="round"/>
  <circle cx="770" cy="294" r="38" fill="#14b8a6"/>
  <path d="M752 294L766 308L791 278" stroke="white" stroke-width="11" stroke-linecap="round" stroke-linejoin="round"/>
  <path d="M940 314H1002" stroke="#4f46e5" stroke-width="13" stroke-linecap="round"/>
  <path d="M940 280H1026" stroke="#4f46e5" stroke-width="13" stroke-linecap="round"/>
  <rect x="478" y="398" width="266" height="38" rx="19" fill="#e2e8f0"/>
  <rect x="478" y="462" width="338" height="38" rx="19" fill="#e2e8f0"/>
  <rect x="778" y="398" width="274" height="102" rx="18" fill="#f8fafc" stroke="#bae6fd" stroke-width="4"/>
  <path d="M814 438H990" stroke="#38bdf8" stroke-width="11" stroke-linecap="round"/>
  <path d="M814 470H948" stroke="#94a3b8" stroke-width="11" stroke-linecap="round"/>
  <rect x="148" y="574" width="884" height="54" rx="27" fill="#334155"/>
  <rect x="224" y="608" width="68" height="34" rx="8" fill="#475569"/>
  <rect x="514" y="608" width="68" height="34" rx="8" fill="#475569"/>
  <rect x="802" y="608" width="68" height="34" rx="8" fill="#475569"/>
  <path d="M160 600H1012" stroke="#f8fafc" stroke-width="5" stroke-linecap="round" stroke-dasharray="38 38"/>
  <circle cx="111" cy="622" r="34" fill="#0f172a"/>
  <circle cx="111" cy="622" r="14" fill="#cbd5e1"/>
  <circle cx="1060" cy="622" r="34" fill="#0f172a"/>
  <circle cx="1060" cy="622" r="14" fill="#cbd5e1"/>
  <rect x="94" y="70" width="224" height="48" rx="24" fill="#ffffff" opacity="0.92"/>
  <path d="M126 94H286" stroke="#2563eb" stroke-width="11" stroke-linecap="round"/>
  <rect x="914" y="516" width="154" height="58" rx="18" fill="#0891b2"/>
  <path d="M944 545H1038" stroke="white" stroke-width="12" stroke-linecap="round"/>
  <defs>
    <linearGradient id="sky" x1="600" y1="0" x2="600" y2="720" gradientUnits="userSpaceOnUse">
      <stop stop-color="#dbeafe"/>
      <stop offset="0.52" stop-color="#f8fafc"/>
      <stop offset="1" stop-color="#ecfeff"/>
    </linearGradient>
  </defs>
</svg>
